<svg width="347" height="639" viewBox="0 0 347 639" fill="none" xmlns="http://www.w3.org/2000/svg">
<mask id="mask0_191_565" style="mask-type:alpha" maskUnits="userSpaceOnUse" x="41" y="0" width="306" height="639">
<path d="M346.213 480.503L305.676 638.396L326.264 476.675L266.257 628.189L306.793 470.455L228.274 613.197L288.44 461.684L192.525 593.58L271.204 450.838L159.49 569.657L255.405 437.76L129.806 541.747L241.52 422.928L103.792 510.327L229.551 406.501L81.9279 475.878L219.656 388.638L64.5324 439.036L212.155 369.659L51.9246 400.121L207.048 349.882L44.2642 360.09L204.495 329.627L41.7107 319.42L204.495 309.213L44.2642 278.751L207.048 289.117L51.9246 238.719L212.155 269.341L64.5324 199.964L219.656 250.362L81.9279 163.122L229.551 232.499L103.792 128.672L241.52 215.912L129.806 97.2533L255.405 201.08L159.49 69.3429L271.204 188.161L192.525 45.2602L288.44 177.157L228.274 25.6431L306.793 168.544L266.257 10.6513L326.264 162.165L305.676 0.603516L346.213 158.337" stroke="black" stroke-miterlimit="10"/>
</mask>
<g mask="url(#mask0_191_565)">
<rect y="-43" width="367" height="703" rx="45" fill="black"/>
</g>
<path d="M95.7145 465.596L141.421 490.5L95.7145 515.604L70.7107 561.21L45.7069 515.604L1.76214e-05 490.5L45.7069 465.596L70.7107 419.789L95.7145 465.596Z" fill="#B9FF66"/>
<path d="M217.102 239.065L298.777 283.566L217.102 328.425L172.422 409.922L127.742 328.425L46.0663 283.566L127.742 239.065L172.422 157.211L217.102 239.065Z" fill="#191A23"/>
</svg>
